<svg width="34" height="34" viewBox="0 0 34 34" fill="none" xmlns="http://www.w3.org/2000/svg">
<path d="M20.4835 0.452598C21.1374 -0.397381 22.4959 0.0248327 22.5528 1.09573L23.1639 12.6028C23.1818 12.9395 23.3459 13.2515 23.6131 13.4571L32.7464 20.4835C33.5963 21.1374 33.1741 22.4959 32.1032 22.5527L20.5962 23.1639C20.2595 23.1818 19.9474 23.3459 19.7418 23.6131L12.7154 32.7463C12.0615 33.5963 10.7031 33.1741 10.6462 32.1032L10.035 20.5962C10.0171 20.2595 9.85305 19.9474 9.58582 19.7418L0.452604 12.7154C-0.397375 12.0615 0.0248384 10.7031 1.09574 10.6462L12.6028 10.035C12.9395 10.0171 13.2516 9.85305 13.4571 9.58581L20.4835 0.452598Z" fill="white"/>
</svg>
