<svg width="203" height="203" viewBox="0 0 203 203" fill="none" xmlns="http://www.w3.org/2000/svg">
<path d="M101.499 186.085C112.609 186.098 123.612 183.917 133.876 179.665C144.14 175.414 153.462 169.176 161.308 161.31C169.174 153.464 175.412 144.142 179.663 133.878C183.915 123.614 186.096 112.611 186.083 101.501C186.096 90.3917 183.915 79.3889 179.663 69.1249C175.412 58.861 169.174 49.5383 161.308 41.6925C153.462 33.8269 144.14 27.5891 133.876 23.3375C123.612 19.086 112.609 16.9043 101.499 16.918C90.3898 16.9043 79.3869 19.086 69.123 23.3375C58.8591 27.5891 49.5364 33.8269 41.6905 41.6925C33.825 49.5383 27.5872 58.861 23.3356 69.1249C19.084 79.3889 16.9024 90.3917 16.9161 101.501C16.9024 112.611 19.084 123.614 23.3356 133.878C27.5872 144.142 33.825 153.464 41.6905 161.31C49.5364 169.176 58.8591 175.414 69.123 179.665C79.3869 183.917 90.3898 186.098 101.499 186.085Z" stroke="white" stroke-width="3" stroke-linejoin="round"/>
<path d="M67.666 101.5L93.041 126.875L143.791 76.125" stroke="white" stroke-width="3" stroke-linecap="round" stroke-linejoin="round"/>
</svg>
